# xmcd CD database file
#
# Track frame offsets:
#	150
#	13380
#	29442
#	48937
#	67865
#	85752
#	108775
#	125622
#	145455
#	169377
#
# Disc length: 2529 seconds
#
# Revision: 0
# Processed by: cddbd v1.5.1PL0 Copyright (c) Steve Scherf et al.
# Submitted via: CDex 1.50
#
DISCID=8609df0a
DTITLE=SCARLET - HEART ALBUM
DYEAR=2005
DGENRE=JPop
TTITLE0=陽炎
TTITLE1=starfruits
TTITLE2=君がいた夏
TTITLE3=ナナイロネイロ
TTITLE4=summer high
TTITLE5=pray
TTITLE6=淡い季節
TTITLE7=LOVE SONG
TTITLE8=永遠いライト
TTITLE9=ニジムセカイ
EXTD=YEAR: 2005
EXTT0=
EXTT1=
EXTT2=
EXTT3=
EXTT4=
EXTT5=
EXTT6=
EXTT7=
EXTT8=
EXTT9=
PLAYORDER=
